# xmcd
#
# Track frame offsets: 
#        150
#        14810
#        31582
#        33623
#        35387
#        50475
#        53012
#        62094
#        92014
#        92586
#        108228
#        122866
#        142258
#        159535
#        165798
#        166481
#        191251
#        216639
#        236628
#        248513
#        260092
#        288885
#        299691
#        302357
#        307320
#        316464
#        319639
#        328234
#        333827
#        334282
#        337209
#        342809
#
# Disc length: 4782 seconds
#
# Revision: 0
# Processed by: cddbd v1.5.2PL0 Copyright (c) Steve Scherf et al.
# Submitted via: ExactAudioCopy v0.95b4
#
DISCID=e212ac20
DTITLE=The Beatles  - AB  Road - Complete Purple Chick Set v1.1 Jan.03
DTITLE=Various Artist - D3  FLAC
DYEAR=1900
DGENRE=
TTITLE0=All Things Must Pass 3.94
TTITLE1=All Things Must Pass 3.95
TTITLE2=The Weight 3.96
TTITLE3=I'm A Tiger 3.97
TTITLE4=All Things Must Pass 3.98
TTITLE5=Improvisation 3.99
TTITLE6=All Things Must Pass 3.100
TTITLE7=All Things Must Pass 3.101
TTITLE8=All Things Must Pass 3.102
TTITLE9=All Things Must Pass 3.103
TTITLE10=All Things Must Pass 3.104
TTITLE11=All Things Must Pass 3.105
TTITLE12=All Things Must Pass 3.106
TTITLE13=All Things Must Pass 3.107
TTITLE14=Slate Announcement
TTITLE15=All Things Must Pass 3.108
TTITLE16=All Things Must Pass 3.109
TTITLE17=All Things Must Pass 3.110
TTITLE18=All Things Must Pass 3.111
TTITLE19=All Things Must Pass 3.112
TTITLE20=All Things Must Pass 3.113
TTITLE21=All Things Must Pass 3.114
TTITLE22=All Things Must Pass 3.115
TTITLE23=Improvisation 3.116
TTITLE24=All Things Must Pass 3.117
TTITLE25=All Things Must Pass 3.118
TTITLE26=All Things Must Pass 3.119
TTITLE27=All Things Must Pass 3.120
TTITLE28=Slate Announcement
TTITLE29=All Things Must Pass 3.121
TTITLE30=All Things Must Pass 3.122
TTITLE31=All Things Must Pass 3.123
EXTD=
EXTT0=
EXTT1=
EXTT2=
EXTT3=
EXTT4=
EXTT5=
EXTT6=
EXTT7=
EXTT8=
EXTT9=
EXTT10=
EXTT11=
EXTT12=
EXTT13=
EXTT14=
EXTT15=
EXTT16=
EXTT17=
EXTT18=
EXTT19=
EXTT20=
EXTT21=
EXTT22=
EXTT23=
EXTT24=
EXTT25=
EXTT26=
EXTT27=
EXTT28=
EXTT29=
EXTT30=
EXTT31=
PLAYORDER=
